<svg width="475" height="680" viewBox="0 0 475 680" fill="none" xmlns="http://www.w3.org/2000/svg">
<rect width="475" height="680" rx="6" fill="#ECECEC"/>
<path d="M321.957 254.405C319.452 246.71 312.438 241.233 304.173 241.233H166.407C158.141 241.233 151.253 246.71 148.623 254.405L122.572 332.524V436.858C122.572 444.03 128.208 449.899 135.096 449.899H147.621C154.509 449.899 160.145 444.03 160.145 436.858V423.816H310.435V436.858C310.435 444.03 316.07 449.899 322.959 449.899H335.483C342.371 449.899 348.007 444.03 348.007 436.858V332.524L321.957 254.405ZM166.407 384.691C156.012 384.691 147.621 375.953 147.621 365.128C147.621 354.304 156.012 345.566 166.407 345.566C176.802 345.566 185.193 354.304 185.193 365.128C185.193 375.953 176.802 384.691 166.407 384.691ZM304.173 384.691C293.777 384.691 285.386 375.953 285.386 365.128C285.386 354.304 293.777 345.566 304.173 345.566C314.568 345.566 322.959 354.304 322.959 365.128C322.959 375.953 314.568 384.691 304.173 384.691ZM147.621 319.483L166.407 260.795H304.173L322.959 319.483H147.621Z" fill="#CFCECE"/>
</svg>
