<svg width="58" height="58" viewBox="0 0 58 58" fill="none" xmlns="http://www.w3.org/2000/svg">
<path fill-rule="evenodd" clip-rule="evenodd" d="M30.8125 52.5625V47.125C30.8125 46.1245 30.0005 45.3125 29 45.3125C27.9995 45.3125 27.1875 46.1245 27.1875 47.125V52.5625C27.1875 53.563 27.9995 54.375 29 54.375C30.0005 54.375 30.8125 53.563 30.8125 52.5625ZM30.8125 39.875V34.4375C30.8125 33.437 30.0005 32.625 29 32.625C27.9995 32.625 27.1875 33.437 27.1875 34.4375V39.875C27.1875 40.8755 27.9995 41.6875 29 41.6875C30.0005 41.6875 30.8125 40.8755 30.8125 39.875Z" fill="#025A7D"/>
<path fill-rule="evenodd" clip-rule="evenodd" d="M24.1279 24.1715L27.6297 28.3511C27.974 28.7626 28.4834 29 29.0199 29C29.5564 29 30.0639 28.7626 30.4082 28.3511L33.9118 24.1715C37.4462 22.3844 39.8749 18.7141 39.8749 14.4801C39.8749 8.48975 35.0102 3.625 29.0199 3.625C23.0277 3.625 18.1648 8.48975 18.1648 14.4801C18.1648 18.7122 20.5899 22.3808 24.1279 24.1715V24.1715ZM26.6564 21.5452C26.4824 21.3386 26.2649 21.1718 26.0202 21.0594C23.5262 19.9194 21.7898 17.4018 21.7898 14.4801C21.7898 10.4889 25.0287 7.25 29.0199 7.25C33.011 7.25 36.2499 10.4889 36.2499 14.4801C36.2499 17.4018 34.5135 19.9194 32.0195 21.0594C31.773 21.1718 31.5574 21.3386 31.3834 21.5452L29.0199 24.3654L26.6564 21.5452V21.5452Z" fill="#025A7D"/>
<path d="M29.02 18.125C31.022 18.125 32.645 16.502 32.645 14.5C32.645 12.498 31.022 10.875 29.02 10.875C27.018 10.875 25.395 12.498 25.395 14.5C25.395 16.502 27.018 18.125 29.02 18.125Z" fill="#025A7D"/>
<path fill-rule="evenodd" clip-rule="evenodd" d="M15.0257 22.9064L3.74837 51.9064C3.53087 52.4628 3.60337 53.0917 3.94231 53.5866C4.27943 54.0796 4.8395 54.375 5.43762 54.375H52.5626C53.1608 54.375 53.7208 54.0796 54.0579 53.5866C54.3969 53.0917 54.4694 52.4628 54.2519 51.9064L42.9745 22.9064C42.612 21.9729 41.5608 21.5107 40.6273 21.8732C39.6957 22.2357 39.2335 23.287 39.596 24.2186L49.9128 50.75H8.0875L18.4042 24.2186C18.7667 23.287 18.3046 22.2357 17.3729 21.8732C16.4395 21.5107 15.3882 21.9729 15.0257 22.9064V22.9064Z" fill="#025A7D"/>
</svg>
