<svg width="177" height="60" viewBox="0 0 177 60" fill="none" xmlns="http://www.w3.org/2000/svg">
<path d="M117.139 11.6C116.993 12.4267 116.653 13.1133 116.119 13.66C115.586 14.2067 114.946 14.5867 114.199 14.8C114.866 14.9467 115.393 15.2733 115.779 15.78C116.166 16.2867 116.359 16.88 116.359 17.56C116.359 17.7733 116.339 17.98 116.299 18.18C116.099 19.3533 115.526 20.2867 114.579 20.98C113.633 21.66 112.426 22 110.959 22H104.419L106.899 7.96H113.219C114.486 7.96 115.466 8.22 116.159 8.74C116.853 9.26 117.199 9.98 117.199 10.9C117.199 11.1267 117.179 11.36 117.139 11.6ZM111.539 13.66C112.113 13.66 112.573 13.5333 112.919 13.28C113.266 13.0267 113.479 12.66 113.559 12.18C113.573 12.1 113.579 11.9933 113.579 11.86C113.579 11.4733 113.453 11.18 113.199 10.98C112.946 10.7667 112.573 10.66 112.079 10.66H109.839L109.319 13.66H111.539ZM112.899 17.72C112.926 17.56 112.939 17.44 112.939 17.36C112.939 16.9733 112.799 16.6733 112.519 16.46C112.239 16.2333 111.853 16.12 111.359 16.12H108.879L108.319 19.28H110.839C111.426 19.28 111.893 19.1467 112.239 18.88C112.586 18.6133 112.806 18.2267 112.899 17.72ZM132.123 7.96L125.623 17.36L124.783 22H121.363L122.203 17.36L118.983 7.96H122.863L124.543 13.82L128.283 7.96H132.123ZM74.1324 44.96C74.3724 43.5733 74.8858 42.34 75.6724 41.26C76.4724 40.1667 77.4591 39.32 78.6324 38.72C79.8058 38.1067 81.0724 37.8 82.4324 37.8C84.0991 37.8 85.4458 38.24 86.4724 39.12C87.5124 40 88.0991 41.2 88.2324 42.72H84.4724C84.2991 42.1467 83.9791 41.7133 83.5124 41.42C83.0591 41.1133 82.4991 40.96 81.8324 40.96C80.7791 40.96 79.8658 41.3267 79.0924 42.06C78.3191 42.78 77.8258 43.7467 77.6124 44.96C77.5458 45.3333 77.5124 45.66 77.5124 45.94C77.5124 46.8733 77.7724 47.6133 78.2924 48.16C78.8124 48.7067 79.5258 48.98 80.4324 48.98C81.0858 48.98 81.6924 48.8267 82.2524 48.52C82.8258 48.2133 83.3058 47.7733 83.6924 47.2H87.4524C86.7858 48.72 85.7791 49.92 84.4324 50.8C83.0858 51.6667 81.5791 52.1 79.9124 52.1C78.7124 52.1 77.6658 51.8667 76.7724 51.4C75.8791 50.9333 75.1924 50.2733 74.7124 49.42C74.2324 48.5667 73.9924 47.5733 73.9924 46.44C73.9924 45.9333 74.0391 45.44 74.1324 44.96ZM97.8668 49.52H92.6268L91.3468 52H87.7668L95.3268 37.96H99.2868L101.887 52H98.2668L97.8668 49.52ZM97.4668 46.92L96.6468 41.72L93.9668 46.92H97.4668ZM111.653 37.96C113.106 37.96 114.213 38.2933 114.973 38.96C115.733 39.6133 116.113 40.4667 116.113 41.52C116.113 41.8267 116.086 42.1133 116.033 42.38C115.873 43.3133 115.466 44.1467 114.813 44.88C114.16 45.6133 113.286 46.1333 112.193 46.44L114.453 52H110.593L108.613 46.7H107.793L106.853 52H103.433L105.913 37.96H111.653ZM112.533 42.52C112.56 42.3067 112.573 42.1667 112.573 42.1C112.573 41.6733 112.433 41.3467 112.153 41.12C111.886 40.88 111.486 40.76 110.953 40.76H108.833L108.213 44.28H110.333C110.96 44.28 111.453 44.1267 111.813 43.82C112.186 43.5133 112.426 43.08 112.533 42.52ZM123.16 52.14C121.973 52.14 120.926 51.8933 120.02 51.4C119.126 50.9067 118.433 50.2133 117.94 49.32C117.446 48.4267 117.2 47.4 117.2 46.24C117.2 44.6 117.553 43.14 118.26 41.86C118.966 40.5667 119.946 39.56 121.2 38.84C122.466 38.12 123.9 37.76 125.5 37.76C126.7 37.76 127.753 38.0067 128.66 38.5C129.566 38.98 130.266 39.6667 130.76 40.56C131.253 41.44 131.5 42.4533 131.5 43.6C131.5 45.24 131.146 46.7133 130.44 48.02C129.733 49.3133 128.746 50.3267 127.48 51.06C126.213 51.78 124.773 52.14 123.16 52.14ZM123.68 48.98C124.56 48.98 125.333 48.7533 126 48.3C126.666 47.8467 127.18 47.24 127.54 46.48C127.913 45.7067 128.1 44.8733 128.1 43.98C128.1 43.02 127.833 42.2667 127.3 41.72C126.766 41.1733 126.02 40.9 125.06 40.9C124.18 40.9 123.4 41.1267 122.72 41.58C122.053 42.0333 121.533 42.64 121.16 43.4C120.8 44.1467 120.62 44.9733 120.62 45.88C120.62 46.84 120.886 47.6 121.42 48.16C121.953 48.7067 122.706 48.98 123.68 48.98ZM144.762 52H141.342L137.162 43.34L135.622 52H132.202L134.682 37.96H138.102L142.282 46.66L143.822 37.96H147.242L144.762 52ZM156.421 49.52H151.181L149.901 52H146.321L153.881 37.96H157.841L160.441 52H156.821L156.421 49.52ZM156.021 46.92L155.201 41.72L152.521 46.92H156.021Z" fill="white"/>
<path fill-rule="evenodd" clip-rule="evenodd" d="M30.8125 53.5625V48.125C30.8125 47.1245 30.0005 46.3125 29 46.3125C27.9995 46.3125 27.1875 47.1245 27.1875 48.125V53.5625C27.1875 54.563 27.9995 55.375 29 55.375C30.0005 55.375 30.8125 54.563 30.8125 53.5625ZM30.8125 40.875V35.4375C30.8125 34.437 30.0005 33.625 29 33.625C27.9995 33.625 27.1875 34.437 27.1875 35.4375V40.875C27.1875 41.8755 27.9995 42.6875 29 42.6875C30.0005 42.6875 30.8125 41.8755 30.8125 40.875Z" fill="#025A7D"/>
<path fill-rule="evenodd" clip-rule="evenodd" d="M24.1279 25.1715L27.6297 29.3511C27.974 29.7626 28.4834 30 29.0199 30C29.5564 30 30.0639 29.7626 30.4082 29.3511L33.9118 25.1715C37.4462 23.3844 39.8749 19.7141 39.8749 15.4801C39.8749 9.48975 35.0102 4.625 29.0199 4.625C23.0277 4.625 18.1648 9.48975 18.1648 15.4801C18.1648 19.7122 20.5899 23.3808 24.1279 25.1715V25.1715ZM26.6564 22.5452C26.4824 22.3386 26.2649 22.1718 26.0202 22.0594C23.5262 20.9194 21.7898 18.4018 21.7898 15.4801C21.7898 11.4889 25.0287 8.25 29.0199 8.25C33.011 8.25 36.2499 11.4889 36.2499 15.4801C36.2499 18.4018 34.5135 20.9194 32.0195 22.0594C31.773 22.1718 31.5574 22.3386 31.3834 22.5452L29.0199 25.3654L26.6564 22.5452V22.5452Z" fill="#025A7D"/>
<path d="M29.02 19.125C31.022 19.125 32.645 17.502 32.645 15.5C32.645 13.498 31.022 11.875 29.02 11.875C27.018 11.875 25.395 13.498 25.395 15.5C25.395 17.502 27.018 19.125 29.02 19.125Z" fill="#025A7D"/>
<path fill-rule="evenodd" clip-rule="evenodd" d="M15.0257 23.9064L3.74837 52.9064C3.53087 53.4628 3.60337 54.0917 3.94231 54.5866C4.27943 55.0796 4.8395 55.375 5.43762 55.375H52.5626C53.1608 55.375 53.7208 55.0796 54.0579 54.5866C54.3969 54.0917 54.4694 53.4628 54.2519 52.9064L42.9745 23.9064C42.612 22.9729 41.5608 22.5107 40.6273 22.8732C39.6957 23.2357 39.2335 24.287 39.596 25.2186L49.9128 51.75H8.0875L18.4042 25.2186C18.7667 24.287 18.3046 23.2357 17.3729 22.8732C16.4395 22.5107 15.3882 22.9729 15.0257 23.9064V23.9064Z" fill="#025A7D"/>
</svg>
