<svg width="475" height="680" viewBox="0 0 475 680" fill="none" xmlns="http://www.w3.org/2000/svg">
<rect width="475" height="680" rx="6" fill="#ECECEC"/>
<g clip-path="url(#clip0_270_91)">
<path d="M238.604 225.094C174.02 225.094 121.604 277.062 121.604 341.094C121.604 405.126 174.02 457.094 238.604 457.094C303.188 457.094 355.604 405.126 355.604 341.094C355.604 277.062 303.188 225.094 238.604 225.094ZM238.604 259.894C258.026 259.894 273.704 275.438 273.704 294.694C273.704 313.95 258.026 329.494 238.604 329.494C219.182 329.494 203.504 313.95 203.504 294.694C203.504 275.438 219.182 259.894 238.604 259.894ZM238.604 424.614C209.354 424.614 183.497 409.766 168.404 387.262C168.755 364.178 215.204 351.534 238.604 351.534C261.887 351.534 308.453 364.178 308.804 387.262C293.711 409.766 267.854 424.614 238.604 424.614Z" fill="#CFCECE"/>
</g>
<defs>
<clipPath id="clip0_270_91">
<rect x="62" y="166" width="351" height="348" rx="6" fill="white"/>
</clipPath>
</defs>
</svg>
